<?xml version="1.0" encoding="utf-8"?><svg xmlns="http://www.w3.org/2000/svg" xmlns:xlink="http://www.w3.org/1999/xlink"><symbol viewBox="0 0 24 24" id="arrow-right" xmlns="http://www.w3.org/2000/svg"><path clip-rule="evenodd" d="M13.498 6.289a.794.794 0 011.123 0l5.15 5.15a.794.794 0 010 1.123l-5.15 5.15a.794.794 0 01-1.123-1.124l3.794-3.794H4.79a.794.794 0 010-1.588h12.502l-3.794-3.794a.794.794 0 010-1.123z"/></symbol><symbol viewBox="0 0 14 14" id="bonus" xmlns="http://www.w3.org/2000/svg"><path d="M12.69 6.055l-1.076 4.756a.437.437 0 01-.438.345H2.793a.437.437 0 01-.437-.345L1.315 6.055a.438.438 0 01.621-.486l2.555 1.238 2.117-3.745a.438.438 0 01.762 0l2.117 3.75 2.573-1.247a.438.438 0 01.63.49z"/></symbol><symbol viewBox="0 0 24 24" id="cart" xmlns="http://www.w3.org/2000/svg"><path clip-rule="evenodd" d="M1.633 2.71c0-.47.38-.85.85-.85h2c.4 0 .746.279.83.67l.61 2.81h13.96a2.01 2.01 0 011.95 2.498l-1.563 6.255a3.17 3.17 0 01-2.76 2.385l-7.907.791a3.171 3.171 0 01-3.417-2.497L4.406 6.37l-.609-2.81H2.483a.85.85 0 01-.85-.85zm4.653 4.33l1.563 7.38a1.471 1.471 0 001.586 1.158l7.906-.791a1.47 1.47 0 001.28-1.107l1.563-6.254a.31.31 0 00-.3-.386H6.285zm.954 13.804a1.271 1.271 0 011.272-1.275 1.275 1.275 0 01.001 2.55 1.273 1.273 0 01-1.273-1.275zm9.76.005a1.271 1.271 0 011.271-1.279c.705 0 1.274.57 1.277 1.27v.005a1.275 1.275 0 01-2.549.004z"/></symbol><symbol viewBox="0 0 20 20" id="cat1" xmlns="http://www.w3.org/2000/svg"><path d="M7.5 16.667V12.5c0-.46.373-.833.833-.833H10m-7.5-2.85l6.415-5.5a1.667 1.667 0 012.17 0l6.415 5.5M3.571 7.899v8.768m6.429 0H2.5m10.52-11.69V3.125c0-.345.28-.625.625-.625h2.159c.345 0 .625.28.625.625v4.774m-1.617 4.732l.188.192.188-.192a1.823 1.823 0 012.606 0c.72.735.72 1.91 0 2.646l-1.763 1.79a1.443 1.443 0 01-2.062 0l-1.763-1.79a1.891 1.891 0 010-2.646 1.823 1.823 0 012.606 0z"/><path d="M7.5 16.667V12.5c0-.46.373-.833.833-.833H10m-7.5-2.85l6.415-5.5a1.667 1.667 0 012.17 0l6.415 5.5M3.571 7.899v8.768m6.429 0H2.5m10.52-11.69V3.125c0-.345.28-.625.625-.625h2.159c.345 0 .625.28.625.625v4.774m-1.617 4.732l.188.192.188-.192a1.823 1.823 0 012.606 0c.72.735.72 1.91 0 2.646l-1.763 1.79a1.443 1.443 0 01-2.062 0l-1.763-1.79a1.891 1.891 0 010-2.646 1.823 1.823 0 012.606 0z"/><defs><linearGradient id="adpaint0_linear_1272_178772" x1="28.663" y1="27.135" x2="1.682" y2="-1.546" gradientUnits="userSpaceOnUse"><stop offset=".051" stop-color="#14D7F2"/><stop offset=".554" stop-color="#1CD5A8"/><stop offset="1" stop-color="#22D26D"/></linearGradient></defs></symbol><symbol viewBox="0 0 20 20" id="cat10" xmlns="http://www.w3.org/2000/svg"><path d="M8.258 6.119h1.741l1.357-.827a.834.834 0 011.225.449l1.92 5.76 2.701 3.601a1.5 1.5 0 01-1.2 2.401h-3.277a3.33 3.33 0 01-2.441-1.064l-7.12-7.664a2.501 2.501 0 01.205-3.599l2.854-2.445a.966.966 0 011.595.734v2.654h2.181M2.496 14.585h1.667M6.665 17.503H2.496"/><path d="M17.125 15.002h-4.188a2.486 2.486 0 01-1.829-.795L3.043 5.52M10.834 10.834l3.255-.564M10 8.75l3.388-.587"/></symbol><symbol viewBox="0 0 20 20" id="cat11" xmlns="http://www.w3.org/2000/svg"><path d="M11.335 2.497v3.835c0 1.105.896 2 2 2M8.668 2.498v3.835c0 1.105-.896 2-2 2m6.669 2.502A4.47 4.47 0 0110 9.332a4.47 4.47 0 01-3.335 1.502m4.585 2.498v1.14a2.5 2.5 0 001.383 2.236l.877.439c2.218 1.108 4.827-.503 4.827-2.982V9.042a3.33 3.33 0 00-.732-2.082l-1.484-1.855c-.74-.926-1.857-1.121-2.786-.79M8.75 13.332v1.14a2.5 2.5 0 01-1.382 2.236l-.878.439c-2.217 1.108-4.826-.503-4.826-2.982V9.042c0-.757.258-1.491.731-2.082L3.88 5.105c.74-.926 1.857-1.121 2.786-.79"/></symbol><symbol viewBox="0 0 20 20" id="cat12" xmlns="http://www.w3.org/2000/svg"><path d="M10.052 9.67a6.029 6.029 0 00-4.101 2.726m3.736-5.423a3.027 3.027 0 000 6.054c2.466 0 3.071-3.028 4.485-3.835a5.511 5.511 0 00-4.485-2.219zM17.507 10A7.503 7.503 0 112.5 10a7.503 7.503 0 0115.006 0z"/></symbol><symbol viewBox="0 0 20 20" id="cat13" xmlns="http://www.w3.org/2000/svg"><path d="M11.261 8.673V2.298a6.374 6.374 0 11-6.308 6.375V6.149c0-.66-.535-1.195-1.195-1.195v0A1.195 1.195 0 002.562 6.15v.398M5.617 8.673H17.57M15.044 17.15a.209.209 0 10.004.416.209.209 0 00-.004-.417M7.477 17.151a.208.208 0 10.001.417.208.208 0 00-.001-.417"/></symbol><symbol viewBox="0 0 20 20" id="cat14" xmlns="http://www.w3.org/2000/svg"><path d="M13.24 9.992a1.26 1.26 0 01-.972.492 1.275 1.275 0 01-.972-.492m-2.595 0a1.26 1.26 0 01-.972.492 1.275 1.275 0 01-.973-.492m5.095 3.463a2.818 2.818 0 01-3.705 0m3.376-9.5l1.354-1.261a1.746 1.746 0 012.65.319l.129.194a2.951 2.951 0 010 3.247l-.13.195a1.744 1.744 0 01-2.65.32l-1.353-1.262m-3.048 0l-1.353 1.26a1.746 1.746 0 01-2.65-.32l-.13-.194a2.95 2.95 0 010-3.245l.13-.194a1.745 1.745 0 012.65-.32l1.353 1.26m7.01 2.745a6.93 6.93 0 011.21 2.417 1.842 1.842 0 010 3.663 6.944 6.944 0 01-6.696 5.116 6.944 6.944 0 01-6.695-5.116 1.842 1.842 0 010-3.663A6.93 6.93 0 014.513 6.7m7.24-1.869c0 .98-.785 1.773-1.755 1.773-.969 0-1.754-.794-1.754-1.773 0-.979.785-1.772 1.754-1.772.97 0 1.755.793 1.755 1.772z"/></symbol><symbol viewBox="0 0 20 20" id="cat15" xmlns="http://www.w3.org/2000/svg"><path d="M11.755 9.504l.62 2.478M8.252 9.504l-.62 2.478m-.965-.184v3.204m0 0a1.25 1.25 0 100 2.501 1.25 1.25 0 000-2.501zm6.67-3.204v3.204m0 0c-.921 0-1.667.746-1.667 1.667.002.294.082.581.23.834m1.437-2.501c.92 0 1.667.746 1.667 1.667a1.661 1.661 0 01-.231.834M13.338 4.998h-6.67M2.5 15.836v-1.154c0-1.193.842-2.22 2.01-2.453l2.373-.474c.197-.04.4 0 .567.111a4.602 4.602 0 005.107 0c.166-.11.37-.15.566-.111l2.373.474a2.5 2.5 0 012.01 2.453v1.154M8.336 1.663h3.335c.92 0 1.667.747 1.667 1.667v3.335a3.335 3.335 0 11-6.67 0V3.33c0-.92.747-1.667 1.668-1.667z"/></symbol><symbol viewBox="0 0 20 20" id="cat16" xmlns="http://www.w3.org/2000/svg"><path d="M9.997 3.958v2.083M11.04 5H8.956M2.497 6.667V17.5m0-10.834h4.614m-4.614 0a.833.833 0 01-.833-.833V5c0-.46.373-.833.833-.833H6.77M17.497 17.5V6.666m0 0c.46 0 .834-.373.834-.833V5a.833.833 0 00-.834-.833h-4.272m4.272 2.5h-4.613M18.331 17.5H1.664m8.333-5.834V17.5M13.331 5a3.333 3.333 0 11-6.667 0 3.333 3.333 0 016.667 0zm-5.834 6.666h5c.46 0 .834.374.834.834v5H6.664v-5c0-.46.373-.834.833-.834z"/></symbol><symbol viewBox="0 0 20 20" id="cat17" xmlns="http://www.w3.org/2000/svg"><path d="M8.332 10.011c.92-1.11 2.412-1.11 3.333 0M7.358 7.643a3.333 3.333 0 11-4.714 4.714 3.333 3.333 0 014.714-4.714"/><path d="M17.358 7.643a3.333 3.333 0 11-4.713 4.714 3.333 3.333 0 014.713-4.714M1.665 10H.832M19.165 10h-.833"/></symbol><symbol viewBox="0 0 20 20" id="cat18" xmlns="http://www.w3.org/2000/svg"><path d="M16.128 14.441l-1.404 1.408-.843-.847M6.938 9.56H5.172m8.876 0h-1.765m2.648-2.648l1.765-.883M4.289 6.91l-1.766-.883m1.744 1.034l.75-3.201c.188-.799.9-1.364 1.72-1.364h5.746c.82 0 1.532.565 1.719 1.364l.75 3.201M16.696 10v-.658a2.362 2.362 0 00-2.359-2.362h-9.45a2.362 2.362 0 00-2.364 2.362v3.993c0 .46.374.834.834.834h1.864c.46 0 .834-.374.834-.834v-1.128h3.947m5.002-.54a3.335 3.335 0 110 6.67 3.335 3.335 0 010-6.67z"/></symbol><symbol viewBox="0 0 20 20" id="cat2" xmlns="http://www.w3.org/2000/svg"><circle cx="10.001" cy="4.844" r="2.76"/><path d="M13.333 17.5v-7.131M10 14.167H7.918c-.69 0-1.25.56-1.25 1.25v1.25c0 .46.374.833.834.833H15c.92 0 1.667-.746 1.667-1.667v-1.377a4.161 4.161 0 00-3.174-4.053 15.325 15.325 0 00-6.987 0 4.161 4.161 0 00-3.173 4.053v2.21M10 10v7.5"/></symbol><symbol viewBox="0 0 20 20" id="cat3" xmlns="http://www.w3.org/2000/svg"><path d="M6.667 14.164H4.583A2.083 2.083 0 012.5 12.081V5"/><path d="M12.5 7.5V3.333a.833.833 0 00-.833-.833H5A2.5 2.5 0 002.5 5v0A2.5 2.5 0 005 7.502h10.417A2.083 2.083 0 0117.5 9.584v0a2.079 2.079 0 01-2.078 2.083H7.496a.83.83 0 00-.83.833v4.167c0 .46.374.833.834.833h7.917c1.15 0 2.083-.933 2.083-2.083V9.584"/></symbol><symbol viewBox="0 0 20 20" id="cat4" xmlns="http://www.w3.org/2000/svg"><path d="M4.166 16.667l3.333-3.334M15.657 8.51l-4.335 4.335a1.667 1.667 0 01-1.179.489H7.5V10.69c0-.443.176-.866.488-1.179l4.335-4.335M9.166 8.334l3.333 3.333"/><path clip-rule="evenodd" d="M12.172 3.005a1.428 1.428 0 012.02 0l3.635 3.636a1.428 1.428 0 010 2.02v0a1.428 1.428 0 01-2.02 0l-3.635-3.636a1.428 1.428 0 010-2.02v0z"/><path d="M8.333 5.833l-.657-.656M4.344 8.51l1.073 1.073"/><path clip-rule="evenodd" d="M7.828 3.006a1.428 1.428 0 010 2.02L4.192 8.66a1.428 1.428 0 01-2.02 0v0a1.428 1.428 0 010-2.02l3.636-3.635a1.428 1.428 0 012.02 0v0z"/><path d="M15.834 16.666l-2.5-2.5"/></symbol><symbol viewBox="0 0 20 20" id="cat5" xmlns="http://www.w3.org/2000/svg"><path d="M1.664 10.833h16.667m-.834 0l-.453 2.905a3.464 3.464 0 01-3.423 2.929H6.373a3.464 3.464 0 01-3.422-2.93l-.454-2.904m2.61 5.59L4.164 17.5m10.724-1.077l.943 1.077M9.164 5a2.5 2.5 0 00-5 0v5.833M9.071 5h.186c.883 0 1.668.565 1.947 1.403a.833.833 0 01-.79 1.097h-2.5a.833.833 0 01-.79-1.097A2.052 2.052 0 019.071 5z"/></symbol><symbol viewBox="0 0 20 20" id="cat6" xmlns="http://www.w3.org/2000/svg"><path d="M10 7.465v-.66c0-.68.42-1.05.842-1.332.412-.278.825-.64.825-1.306a1.666 1.666 0 10-3.334 0M15 12.848h.563a1.937 1.937 0 00.612-3.775l-3.54-1.18a8.337 8.337 0 00-5.27 0l-3.54 1.18A1.939 1.939 0 002.5 10.92v.041a1.89 1.89 0 001.89 1.89H5m8.293 4.65H6.708A1.708 1.708 0 015 15.793V12.52c0-.472.383-.854.854-.854h8.293c.47 0 .853.382.853.854v3.271c0 .943-.765 1.708-1.707 1.708z"/></symbol><symbol viewBox="0 0 20 20" id="cat7" xmlns="http://www.w3.org/2000/svg"><path d="M17.497 5.833V2.5h-15v3.333m15 0h-15m15 0h-7.5v10.834c0 .46.373.833.834.833h5.833c.46 0 .833-.373.833-.833V5.833zm-15 0V17.5m15-5.833h-7.5m2.917-3.334h1.667M18.33 2.5H1.664m11.25 11.667h1.667"/></symbol><symbol viewBox="0 0 20 20" id="cat8" xmlns="http://www.w3.org/2000/svg"><path d="M15.83 5v-.833c0-.921-.745-1.667-1.666-1.667m0 0c-.92 0-1.667.746-1.667 1.667v11.666c0 .921-.745 1.667-1.666 1.667h-5c-.921 0-1.667-.746-1.667-1.667V5m10-2.5h-7.5a2.5 2.5 0 00-2.5 2.5m0 0h-1.25a1.25 1.25 0 000 2.5h1.25m11.667 0v5c0 .92-.746 1.667-1.667 1.667h-1.667m0-6.667h4.584a1.25 1.25 0 000-2.5h-4.584"/></symbol><symbol viewBox="0 0 20 20" id="cat9" xmlns="http://www.w3.org/2000/svg"><path d="M4.162 8.652h3.335m-3.335 0a.834.834 0 00-.834.834v6.35c0 .92.747 1.667 1.667 1.667h1.668c.92 0 1.667-.746 1.667-1.667v-6.35a.834.834 0 00-.833-.834m-3.335 0V4.164c0-.315.178-.604.46-.745l1.668-.834a.834.834 0 011.207.746v5.321m.833 3.85H3.328M13.332 10H15c.92 0 1.667.747 1.667 1.668v5.002c0 .46-.373.833-.834.833H12.5a.834.834 0 01-.834-.833v-5.002c0-.921.746-1.668 1.667-1.668z"/></symbol><symbol viewBox="0 0 16 17" id="clock" xmlns="http://www.w3.org/2000/svg"><path clip-rule="evenodd" d="M8.002 2.998a5.502 5.502 0 100 11.005 5.502 5.502 0 000-11.005zM1.5 8.5a6.503 6.503 0 1113.005 0A6.503 6.503 0 011.5 8.5zm6.1-3.835a.5.5 0 01.5.5v3.237h2.602a.5.5 0 110 1H7.601a.5.5 0 01-.5-.5V5.165a.5.5 0 01.5-.5z"/></symbol><symbol viewBox="0 0 24 24" id="comparison" xmlns="http://www.w3.org/2000/svg"><path clip-rule="evenodd" d="M9.498 12.148c.47 0 .85.381.85.85v8a.85.85 0 11-1.7 0v-8c0-.469.381-.85.85-.85zM19.498 7.151c.47 0 .85.381.85.85v13a.85.85 0 11-1.7 0v-13c0-.469.381-.85.85-.85zM14.498 2.15c.47 0 .85.38.85.85v18a.85.85 0 11-1.7 0V3c0-.47.381-.85.85-.85zM4.498 7.151c.47 0 .85.381.85.85v13a.85.85 0 01-1.7 0v-13c0-.469.381-.85.85-.85z"/></symbol><symbol viewBox="0 0 24 24" id="cross" xmlns="http://www.w3.org/2000/svg"><path d="M6.577 5.176a.992.992 0 10-1.404 1.403L10.595 12l-5.422 5.421a.992.992 0 001.404 1.404l5.42-5.422 5.422 5.421a.992.992 0 001.403-1.403l-5.42-5.42 5.42-5.422a.992.992 0 00-1.403-1.403l-5.421 5.42-5.421-5.42z"/></symbol><symbol viewBox="0 0 30 38" id="file" xmlns="http://www.w3.org/2000/svg"><path clip-rule="evenodd" d="M27.828 7.828l-5.656-5.656A4.001 4.001 0 0019.344 1H5C2.79 1 1 2.79 1 5v28c0 2.21 1.79 4 4 4h20c2.21 0 4-1.79 4-4V10.656c0-1.06-.422-2.078-1.172-2.828v0z"/><path d="M11.68 24.1h6.64"/><path clip-rule="evenodd" d="M12.666 16.502v-2.336c0-.644.522-1.166 1.166-1.166h2.336c.644 0 1.166.522 1.166 1.166v2.336c0 .644-.522 1.166-1.166 1.166h-2.336a1.169 1.169 0 01-1.166-1.166zM7 25.834v-2.336c0-.644.522-1.166 1.166-1.166h2.336c.644 0 1.166.522 1.166 1.166v2.336c0 .644-.522 1.166-1.166 1.166H8.166A1.166 1.166 0 017 25.834zM18.334 25.834v-2.336c0-.644.522-1.166 1.166-1.166h2.336c.644 0 1.166.522 1.166 1.166v2.336A1.169 1.169 0 0121.834 27h-2.336a1.166 1.166 0 01-1.164-1.166h0z"/><path d="M19.48 22.34l-3.02-4.72M10.52 22.34l3.02-4.72"/></symbol><symbol viewBox="0 0 20 20" id="icons--cat10" xmlns="http://www.w3.org/2000/svg"><path d="M8.262 5.62a.5.5 0 000 1v-1zm1.741.5v.5a.5.5 0 00.26-.073l-.26-.427zm1.357-.827l-.26-.427.26.427zm1.225.448l-.474.158.474-.158zm1.92 5.76l-.474.158c.017.051.042.099.074.142l.4-.3zm2.701 3.601l.4-.3-.4.3zm.142 1.572l-.447-.224.447.224zm-4.619.83v-.5.5zm-2.441-1.064l.366-.34-.367.34zM3.166 8.776l-.367.34.367-.34zm-.663-1.844l-.5-.028.5.028zm.869-1.755l-.325-.38.325.38zM6.227 2.73l-.326-.38.326.38zm1.594.734h.5-.5zm0 2.655h-.5a.5.5 0 00.5.5v-.5zm-5.32 7.966a.5.5 0 100 1v-1zm1.666 1a.5.5 0 000-1v1zm2.501 2.917a.5.5 0 100-1v1zm-4.168-1a.5.5 0 000 1v-1zm14.629-1.5a.5.5 0 100-1v1zm-4.189-.5v-.5h-.001l.001.5zm-1.829-.796l.367-.34-.367.34zM3.413 5.182a.5.5 0 10-.733.68l.733-.68zm7.339 5.16a.5.5 0 00.17.985l-.17-.986zm3.426.421a.5.5 0 00-.17-.985l.17.985zm-4.26-2.506a.5.5 0 00.17.985l-.17-.985zm3.559.4a.5.5 0 00-.17-.986l.17.985zM8.261 6.62h1.741v-1H8.262v1zm2.001-.073l1.358-.827-.52-.854-1.358.827.52.854zm1.358-.827a.334.334 0 01.288-.029l.344-.939a1.334 1.334 0 00-1.153.114l.52.854zm.288-.029c.095.035.17.112.202.208l.948-.316a1.334 1.334 0 00-.806-.83l-.344.938zm.202.208l1.92 5.76.948-.316-1.92-5.76-.948.316zm1.994 5.902l2.701 3.601.8-.6-2.7-3.601-.8.6zm2.701 3.601a1 1 0 01.095 1.048l.894.448a2 2 0 00-.189-2.096l-.8.6zm.095 1.048a1 1 0 01-.895.553v1a2 2 0 001.79-1.105l-.895-.448zm-.895.553h-3.277v1h3.277v-1zm-3.277 0a2.83 2.83 0 01-2.075-.904l-.733.68a3.83 3.83 0 002.809 1.224l-.001-1zm-2.075-.904l-7.12-7.664-.733.681 7.12 7.664.733-.68zm-7.12-7.663a2.001 2.001 0 01-.53-1.475l-1-.057c-.046.815.241 1.613.796 2.212l.734-.68zm-.53-1.475c.03-.543.281-1.05.694-1.405l-.65-.759a3.001 3.001 0 00-1.043 2.107l.998.057zm.694-1.405l2.854-2.445-.65-.76-2.854 2.446.65.76zm2.854-2.445a.466.466 0 01.498-.07l.418-.908a1.466 1.466 0 00-1.567.219l.65.76zm.498-.07a.466.466 0 01.271.424h1c0-.572-.333-1.093-.853-1.332l-.418.909zm.271.424V6.12h1V3.465h-1zm.5 3.155h2.182v-1H7.821v1zm-5.32 8.466h1.666v-1H2.5v1zm4.167 1.917H2.5v1h4.168v-1zm10.46-2.5H12.94v1h4.189v-1zm-4.19 0a1.985 1.985 0 01-1.46-.636l-.733.68a2.986 2.986 0 002.197.955l-.003-1zm-1.46-.636L3.413 5.182l-.733.68 8.065 8.685.733-.68zm-.556-2.54l3.256-.564-.17-.985-3.256.563.17.986zm-.834-2.085l3.389-.586-.17-.985-3.389.586.17.985z"/></symbol><symbol viewBox="0 0 20 20" id="icons--cat11" xmlns="http://www.w3.org/2000/svg"><path d="M11.335 2.497v3.835c0 1.105.896 2 2 2M8.668 2.498v3.835c0 1.105-.896 2-2 2m6.669 2.502A4.47 4.47 0 0110 9.332a4.47 4.47 0 01-3.335 1.502m4.585 2.498v1.14a2.5 2.5 0 001.383 2.236l.877.439c2.218 1.108 4.827-.503 4.827-2.982V9.042a3.33 3.33 0 00-.732-2.082l-1.484-1.855c-.74-.926-1.857-1.121-2.786-.79M8.75 13.332v1.14a2.5 2.5 0 01-1.382 2.236l-.878.439c-2.217 1.108-4.826-.503-4.826-2.982V9.042c0-.757.258-1.491.731-2.082L3.88 5.105c.74-.926 1.857-1.121 2.786-.79"/></symbol><symbol viewBox="0 0 20 20" id="icons--cat12" xmlns="http://www.w3.org/2000/svg"><path d="M10.052 9.67a6.029 6.029 0 00-4.101 2.726m3.736-5.423a3.027 3.027 0 000 6.054c2.466 0 3.071-3.028 4.485-3.835a5.511 5.511 0 00-4.485-2.219zM17.507 10A7.503 7.503 0 112.5 10a7.503 7.503 0 0115.006 0z"/></symbol><symbol viewBox="0 0 20 20" id="icons--cat13" xmlns="http://www.w3.org/2000/svg"><path d="M11.261 2.299l-.005-.5-.495.005v.495h.5zm5.936 3.889l.46-.195-.46.195zm-8.294 8.38l.19-.462-.19.462zm-3.95-5.895h-.5.5zM3.758 4.955v.5-.5zm-.845.35l-.354-.354.354.353zm8.848 3.368V2.299h-1v6.374h1zm-.495-5.874a5.874 5.874 0 015.47 3.584l.921-.39a6.874 6.874 0 00-6.401-4.194l.01 1zm5.47 3.584a5.874 5.874 0 01-1.234 6.422l.711.703a6.874 6.874 0 001.444-7.515l-.92.39zm-1.234 6.422a5.874 5.874 0 01-6.409 1.3l-.38.926a6.874 6.874 0 007.5-1.523l-.71-.703zm-6.409 1.3a5.874 5.874 0 01-3.64-5.432h-1a6.874 6.874 0 004.26 6.358l.38-.925zm-3.64-5.432V6.149h-1v2.524h1zm0-2.524c0-.935-.76-1.694-1.695-1.694v1c.384 0 .695.31.695.694h1zM3.758 4.455c-.45 0-.88.178-1.199.496l.707.707a.695.695 0 01.492-.203v-1zM2.56 4.95c-.318.318-.497.749-.497 1.198h1c0-.184.074-.36.204-.49L2.56 4.95zm-.497 1.198v.399h1v-.399h-1zm2.89 3.024H17.57v-1H4.953v1zm10.103 8.204v-.001h.001v1a.999.999 0 00.999-1h-1zm.001-.002h.001v.001s0 .001 0 0h-1c0 .552.447 1 1 1v-1zm.001.002c0-.001 0 0 0 0-.001.001-.002 0 0 0v-1a.999.999 0 00-1 1h1zm0 0h-.002s0-.001 0 0h1a.999.999 0 00-.999-1v1zm-7.596 0v-.001h.001v1a.999.999 0 00.999-1h-1zm.001-.002h.001s0 .001 0 0v.001s0 .001 0 0h-1c0 .552.448 1 1 1v-1zm.002.002c0-.001 0 0 0 0s-.001 0 0 0h-.001c0 .001-.001 0 0 0v-1a.999.999 0 00-1 1h1zm-.002 0c.001 0 0 .001 0 0H7.46h1a.999.999 0 00-.999-1v1z"/></symbol><symbol viewBox="0 0 20 20" id="icons--cat14" xmlns="http://www.w3.org/2000/svg"><path d="M13.24 9.992a1.26 1.26 0 01-.972.492 1.275 1.275 0 01-.972-.492m-2.595 0a1.26 1.26 0 01-.972.492 1.275 1.275 0 01-.973-.492m5.095 3.463a2.818 2.818 0 01-3.705 0m3.376-9.5l1.354-1.261a1.746 1.746 0 012.65.319l.129.194a2.951 2.951 0 010 3.247l-.13.195a1.744 1.744 0 01-2.65.32l-1.353-1.262m-3.048 0l-1.353 1.26a1.746 1.746 0 01-2.65-.32l-.13-.194a2.95 2.95 0 010-3.245l.13-.194a1.745 1.745 0 012.65-.32l1.353 1.26m7.01 2.745a6.93 6.93 0 011.21 2.417 1.842 1.842 0 010 3.663 6.944 6.944 0 01-6.696 5.116 6.944 6.944 0 01-6.695-5.116 1.842 1.842 0 010-3.663A6.93 6.93 0 014.513 6.7m7.24-1.869c0 .98-.785 1.773-1.755 1.773-.969 0-1.754-.794-1.754-1.773 0-.979.785-1.772 1.754-1.772.97 0 1.755.793 1.755 1.772z"/></symbol><symbol viewBox="0 0 20 20" id="icons--cat16" xmlns="http://www.w3.org/2000/svg"><path d="M9.997 3.958v2.083M11.04 5H8.956M2.497 6.667V17.5m0-10.834h4.614m-4.614 0a.833.833 0 01-.833-.833V5c0-.46.373-.833.833-.833H6.77M17.497 17.5V6.666m0 0c.46 0 .834-.373.834-.833V5a.833.833 0 00-.834-.833h-4.272m4.272 2.5h-4.613M18.331 17.5H1.664m8.333-5.834V17.5M13.331 5a3.333 3.333 0 11-6.667 0 3.333 3.333 0 016.667 0zm-5.834 6.666h5c.46 0 .834.374.834.834v5H6.664v-5c0-.46.373-.834.833-.834z"/></symbol><symbol viewBox="0 0 20 20" id="icons--cat17" xmlns="http://www.w3.org/2000/svg"><path d="M7.951 9.692a.5.5 0 00.77.638l-.77-.638zm3.333.638a.5.5 0 00.77-.638l-.77.638zM7.36 7.643l-.354.353.354-.353zm0 4.714l-.354-.354.354.354zm-4.714 0l.353-.354-.353.354zm0-4.714l.353.353-.353-.353zm14.714 0l-.354.353.354-.353zm0 4.714l-.354-.354.354.354zm-4.714 0l.353-.354-.353.354zm0-4.714l.353.353-.353-.353zM1.669 10.5a.5.5 0 100-1v1zm-.833-1a.5.5 0 000 1v-1zm18.333 1a.5.5 0 100-1v1zm-.833-1a.5.5 0 000 1v-1zm-9.615.83c.373-.45.839-.652 1.282-.652.442 0 .908.202 1.281.652l.77-.638c-.548-.661-1.288-1.014-2.051-1.014-.764 0-1.504.353-2.052 1.014l.77.638zM7.006 7.996a2.833 2.833 0 010 4.007l.707.707a3.833 3.833 0 000-5.42l-.707.706zm0 4.007a2.833 2.833 0 01-4.007 0l-.707.707a3.833 3.833 0 005.421 0l-.707-.707zm-4.007 0a2.833 2.833 0 010-4.007l-.707-.707a3.833 3.833 0 000 5.421l.707-.707zm0-4.007a2.833 2.833 0 014.007 0l.707-.707a3.833 3.833 0 00-5.421 0l.707.707zm14.007 0a2.833 2.833 0 010 4.007l.707.707a3.833 3.833 0 000-5.42l-.707.706zm0 4.007a2.833 2.833 0 01-4.007 0l-.707.707a3.833 3.833 0 005.421 0l-.707-.707zm-4.007 0a2.833 2.833 0 010-4.007l-.707-.707a3.833 3.833 0 000 5.421l.707-.707zm0-4.007a2.833 2.833 0 014.007 0l.707-.707a3.833 3.833 0 00-5.421 0l.707.707zM1.67 9.5H.836v1h.833v-1zm17.5 0h-.833v1h.833v-1z"/></symbol><symbol viewBox="0 0 20 20" id="icons--cat18" xmlns="http://www.w3.org/2000/svg"><path d="M16.128 14.441l-1.404 1.408-.843-.847M6.938 9.56H5.172m8.876 0h-1.765m2.648-2.648l1.765-.883M4.289 6.91l-1.766-.883m1.744 1.034l.75-3.201c.188-.799.9-1.364 1.72-1.364h5.746c.82 0 1.532.565 1.719 1.364l.75 3.201M16.696 10v-.658a2.362 2.362 0 00-2.359-2.362h-9.45a2.362 2.362 0 00-2.364 2.362v3.993c0 .46.374.834.834.834h1.864c.46 0 .834-.374.834-.834v-1.128h3.947m5.002-.54a3.335 3.335 0 110 6.67 3.335 3.335 0 010-6.67z"/></symbol><symbol viewBox="0 0 20 20" id="icons--cat3" xmlns="http://www.w3.org/2000/svg"><path d="M6.667 14.665a.5.5 0 000-1v1zM2.5 5H3h-.5zM12 7.5a.5.5 0 001 0h-1zm-7-5V2v.5zm10.417 5.001v.5-.5zM17.5 9.584H17h.5zm-2.078 2.083v.5-.5zm-7.926 0v-.5.5zm-.83.833h.5v-.002l-.5.002zm0 4.167h.5-.5zm0-3.003H4.584v1h2.084v-1zm-2.083 0A1.583 1.583 0 013 12.082H2a2.583 2.583 0 002.583 2.584v-1zM3 12.082v-7.08H2v7.08h1zM13 7.5V3.333h-1V7.5h1zm0-4.167C13 2.597 12.403 2 11.667 2v1c.184 0 .333.15.333.333h1zM11.667 2H5v1h6.666V2zM5 2a3 3 0 00-2.122.879l.707.707A2 2 0 015.001 3V2zm-2.122.879A3 3 0 002 5h1a2 2 0 01.586-1.415l-.707-.707zM2 5a3 3 0 003 3v-1a2 2 0 01-2-2H2zm3 3h10.417v-1H5.001v1zm10.417 0c.42 0 .823.167 1.12.464l.707-.707A2.583 2.583 0 0015.417 7v1zm1.12.464c.296.297.463.7.463 1.119h1c0-.685-.272-1.342-.756-1.826l-.708.707zM17 9.585c0 .42-.165.821-.461 1.118l.708.706A2.579 2.579 0 0018 9.583l-1 .002zm-.461 1.118a1.58 1.58 0 01-1.117.464v1a2.58 2.58 0 001.825-.758l-.708-.706zm-1.117.464H7.496v1h7.926v-1zm-7.926 0a1.33 1.33 0 00-.942.391l.709.706a.33.33 0 01.234-.097l-.001-1zm-.942.391c-.25.25-.389.59-.387.944l1-.004a.33.33 0 01.096-.234l-.709-.706zm-.387.942v4.167h1V12.5h-1zm0 4.167c0 .736.597 1.333 1.333 1.333v-1a.333.333 0 01-.333-.333h-1zM7.5 18h7.917v-1H7.5v1zm7.917 0A2.583 2.583 0 0018 15.417h-1C17 16.29 16.291 17 15.417 17v1zM18 15.417V9.584h-1v5.833h1z"/></symbol><symbol viewBox="0 0 20 20" id="icons--cat4" xmlns="http://www.w3.org/2000/svg"><path d="M3.81 16.313a.5.5 0 10.706.707l-.707-.707zm12.196-7.45a.5.5 0 10-.707-.707l.707.707zm-4.689 3.982l.354.354-.354-.354zm-1.178.488v-.5.5zM7.496 10.69h.5-.5zm.488-1.178l-.353-.354.353.354zm4.689-3.982a.5.5 0 00-.707-.707l.707.707zM9.516 7.98a.5.5 0 10-.707.707l.707-.707zm2.626 4.04a.5.5 0 10.708-.707l-.708.707zm.026-6.995l-.353.354.353-.354zm3.636 3.636l.353-.354-.353.354zm2.02-2.02l.353-.353-.353.353zm-3.636-3.635l-.354.353.354-.353zm-6.212 3.18a.5.5 0 10.707-.706l-.707.707zm.05-1.363a.5.5 0 10-.707.707l.707-.707zM4.693 8.156a.5.5 0 10-.707.707l.707-.707zm.366 1.78a.5.5 0 10.707-.706l-.707.707zm.745-6.93l-.354-.354.354.354zM2.168 6.64l.354.354-.354-.354zm2.02 2.02l-.353-.354.353.354zm3.636-3.636l.353.354-.353-.354zm7.652 11.995a.5.5 0 10.707-.707l-.707.707zm-1.793-3.207a.5.5 0 00-.707.707l.707-.707zM4.516 17.02l3.334-3.333-.708-.707-3.333 3.333.707.707zM15.3 8.156l-4.335 4.336.707.707 4.335-4.336-.707-.707zm-4.335 4.336a1.167 1.167 0 01-.825.341v1c.575 0 1.126-.228 1.532-.634l-.707-.707zm-.825.341H7.496v1h2.643v-1zm-2.143.5V10.69h-1v2.643h1zm0-2.643c0-.309.123-.606.342-.825l-.707-.707a2.167 2.167 0 00-.635 1.532h1zm.342-.825l4.335-4.335-.707-.707L7.63 9.158l.707.707zm.471-1.178l3.333 3.333.708-.707L9.516 7.98l-.707.707zm5.026-5.328l3.635 3.636.707-.707-3.635-3.636-.707.707zm2.322 4.948l-3.635-3.635-.707.707 3.635 3.636.707-.708zm-3.635-3.635a.928.928 0 010-1.313l-.707-.707a1.928 1.928 0 000 2.727l.707-.707zm4.948 3.635a.928.928 0 01-1.313 0l-.707.708a1.928 1.928 0 002.727 0l-.707-.708zm0-1.312a.928.928 0 010 1.312l.707.708a1.928 1.928 0 000-2.727l-.707.707zm-2.928-4.343a1.928 1.928 0 00-2.727 0l.707.707a.928.928 0 011.313 0l.707-.707zM8.682 5.48l-.656-.657-.707.707.657.657.707-.707zM3.987 8.863l1.073 1.074.707-.707-1.073-1.074-.707.707zM7.47 4.672L3.835 8.307l.707.708 3.635-3.636-.707-.707zM2.522 6.995l3.635-3.636-.707-.707-3.635 3.636.707.707zm3.635-3.636a.928.928 0 011.313 0l.707-.707a1.928 1.928 0 00-2.727 0l.707.707zM2.522 8.307a.928.928 0 010-1.312l-.707-.707a1.928 1.928 0 000 2.727l.707-.708zm1.313 0a.928.928 0 01-1.313 0l-.707.708a1.928 1.928 0 002.727 0l-.708-.708zM8.176 5.38a1.928 1.928 0 000-2.727l-.707.707a.928.928 0 010 1.313l.707.707zm8.006 10.934l-2.5-2.5-.707.707 2.5 2.5.707-.707z"/></symbol><symbol viewBox="0 0 20 20" id="icons--cat5" xmlns="http://www.w3.org/2000/svg"><path d="M1.664 10.833h16.667m-.834 0l-.453 2.905a3.464 3.464 0 01-3.423 2.929H6.373a3.464 3.464 0 01-3.422-2.93l-.454-2.904m2.61 5.59L4.164 17.5m10.724-1.077l.943 1.077M9.164 5a2.5 2.5 0 00-5 0v5.833M9.071 5h.186c.883 0 1.668.565 1.947 1.403a.833.833 0 01-.79 1.097h-2.5a.833.833 0 01-.79-1.097A2.052 2.052 0 019.071 5z"/></symbol><symbol viewBox="0 0 20 20" id="icons--cat6" xmlns="http://www.w3.org/2000/svg"><path d="M10 7.465v-.66c0-.68.42-1.05.842-1.332.412-.278.825-.64.825-1.306a1.666 1.666 0 10-3.334 0M15 12.848h.563a1.937 1.937 0 00.612-3.775l-3.54-1.18a8.337 8.337 0 00-5.27 0l-3.54 1.18A1.939 1.939 0 002.5 10.92v.041a1.89 1.89 0 001.89 1.89H5m8.293 4.65H6.708A1.708 1.708 0 015 15.793V12.52c0-.472.383-.854.854-.854h8.293c.47 0 .853.382.853.854v3.271c0 .943-.765 1.708-1.707 1.708z"/></symbol><symbol viewBox="0 0 20 20" id="icons--cat7" xmlns="http://www.w3.org/2000/svg"><path d="M17.497 5.833V2.5h-15v3.333m15 0h-15m15 0h-7.5v10.834c0 .46.373.833.834.833h5.833c.46 0 .833-.373.833-.833V5.833zm-15 0V17.5m15-5.833h-7.5m2.917-3.334h1.667M18.33 2.5H1.664m11.25 11.667h1.667"/></symbol><symbol viewBox="0 0 20 20" id="icons--cat8" xmlns="http://www.w3.org/2000/svg"><path d="M15.83 5v-.833c0-.921-.745-1.667-1.666-1.667m0 0c-.92 0-1.667.746-1.667 1.667v11.666c0 .921-.745 1.667-1.666 1.667h-5c-.921 0-1.667-.746-1.667-1.667V5m10-2.5h-7.5a2.5 2.5 0 00-2.5 2.5m0 0h-1.25a1.25 1.25 0 000 2.5h1.25m11.667 0v5c0 .92-.746 1.667-1.667 1.667h-1.667m0-6.667h4.584a1.25 1.25 0 000-2.5h-4.584"/></symbol><symbol viewBox="0 0 20 20" id="icons--cat9" xmlns="http://www.w3.org/2000/svg"><path d="M4.162 8.652h3.335m-3.335 0a.834.834 0 00-.834.834v6.35c0 .92.747 1.667 1.667 1.667h1.668c.92 0 1.667-.746 1.667-1.667v-6.35a.834.834 0 00-.833-.834m-3.335 0V4.164c0-.315.178-.604.46-.745l1.668-.834a.834.834 0 011.207.746v5.321m.833 3.85H3.328M13.332 10H15c.92 0 1.667.747 1.667 1.668v5.002c0 .46-.373.833-.834.833H12.5a.834.834 0 01-.834-.833v-5.002c0-.921.746-1.668 1.667-1.668z"/></symbol><symbol viewBox="0 0 24 24" id="like" xmlns="http://www.w3.org/2000/svg"><path clip-rule="evenodd" d="M8.302 4.851c-2.582 0-4.454 2.466-4.454 4.905 0 2.549 1.6 4.899 3.554 6.668a15.32 15.32 0 002.848 2.047c.435.238.822.414 1.14.529.335.12.533.151.608.151.076 0 .274-.03.609-.151a8.384 8.384 0 001.14-.53 15.325 15.325 0 002.848-2.046c1.954-1.77 3.553-4.119 3.553-6.668 0-2.439-1.872-4.905-4.454-4.905-1.497 0-2.47.736-3.05 1.414a.85.85 0 01-1.292 0C10.773 5.587 9.8 4.85 8.302 4.85zM2.148 9.756c0-3.11 2.387-6.605 6.154-6.605a5.54 5.54 0 013.696 1.36 5.541 5.541 0 013.696-1.36c3.768 0 6.154 3.495 6.154 6.605 0 3.253-2.011 6.026-4.112 7.928a17.016 17.016 0 01-3.173 2.278c-.493.27-.96.486-1.379.637-.4.144-.817.252-1.186.252-.368 0-.785-.108-1.186-.252-.417-.151-.885-.367-1.378-.637a17.016 17.016 0 01-3.173-2.278C4.16 15.782 2.148 13.01 2.148 9.756z"/></symbol><symbol viewBox="0 0 126 32" id="logo" xmlns="http://www.w3.org/2000/svg"><path d="M52.348.58L42.14 31.418h5.826l1.154-3.45c.163-.498.461-.799 1.086-.799h9.316c.625 0 .923.298 1.086.798l1.154 3.451h5.826L57.386.579h-5.038zm5.335 21.21h-5.63c-.593 0-.923-.364-.724-.962l2.96-8.963c.264-.795.924-.795 1.187 0l2.932 8.963c.195.63-.132.963-.725.963zM86.127 18.837c0 1.063-.757 1.264-1.25.3L75.494.58H68.35v30.837h5.63V13.161c0-1.063.757-1.26 1.25-.298l9.714 18.556h6.816V.579h-5.63v18.258h-.003zM28.873 24.944V.58h-5.63v30.837h18.074v-5.377H29.96c-.625 0-1.087-.465-1.087-1.095zM17.087 15.251c1.942-1.425 3.063-3.55 3.063-6.174 0-5.012-3.262-8.498-8.527-8.498H0v30.837h12.216c4.906 0 8.56-3.784 8.56-8.963 0-2.985-1.385-5.641-3.69-7.202zM5.63 6.456c0-.497.295-.798.792-.798h4.147c2.108 0 3.589 1.66 3.589 3.751 0 2.123-1.48 3.752-3.59 3.752H6.423c-.494 0-.792-.365-.792-.83V6.455zm5.038 19.816H6.486c-.493 0-.856-.365-.856-.863v-6.274c0-.53.363-.895.856-.895h4.182c2.47 0 4.016 1.725 4.016 3.984 0 2.29-1.548 4.048-4.016 4.048zM120.187 16c0 5.683-4.588 10.308-10.225 10.308-5.636 0-10.224-4.622-10.224-10.308s4.588-10.308 10.224-10.308V0c-8.749 0-15.869 7.179-15.869 16 0 8.822 7.12 16 15.869 16 8.75 0 15.87-7.178 15.87-16h-5.645z"/></symbol><symbol viewBox="0 0 24 24" id="menu" xmlns="http://www.w3.org/2000/svg"><path clip-rule="evenodd" d="M8.098 6.437a.9.9 0 01.9-.9h11.005a.9.9 0 010 1.8H8.998a.9.9 0 01-.9-.9zM8.098 12a.9.9 0 01.9-.9h11.005a.9.9 0 010 1.8H8.998a.9.9 0 01-.9-.9zM8.098 17.564a.9.9 0 01.9-.9h11.005a.9.9 0 010 1.8H8.998a.9.9 0 01-.9-.9zM3.096 6.437a1.4 1.4 0 112.8 0 1.4 1.4 0 01-2.8 0zM3.096 12a1.4 1.4 0 112.8 0 1.4 1.4 0 01-2.8 0zM3.096 17.564a1.4 1.4 0 112.8 0 1.4 1.4 0 01-2.8 0z"/></symbol><symbol viewBox="0 0 16 17" id="navigation" xmlns="http://www.w3.org/2000/svg"><path clip-rule="evenodd" d="M11.895 2.944c1.038-.385 2.049.626 1.664 1.664l-3.22 8.687c-.442 1.193-2.16 1.1-2.47-.135l-.905-3.613-3.625-.91c-1.234-.31-1.328-2.028-.135-2.47l8.69-3.223zM9.402 12.947l3.22-8.686a.295.295 0 00-.38-.38l-8.69 3.223a.295.295 0 00.03.563l3.916.983a.5.5 0 01.363.364l.977 3.902c.071.282.463.303.564.031z"/></symbol><symbol viewBox="0 0 20 20" id="sale" xmlns="http://www.w3.org/2000/svg"><path clip-rule="evenodd" d="M10.506 2.726l1.208-.59a1.15 1.15 0 011.522.494l.631 1.189c.167.313.469.532.819.594l1.325.232c.611.108 1.027.68.94 1.295l-.188 1.332c-.05.352.066.707.313.962l.935.966a1.151 1.151 0 010 1.601l-.935.967a1.15 1.15 0 00-.313.961l.188 1.332a1.151 1.151 0 01-.94 1.295l-1.325.232c-.35.062-.652.281-.819.595l-.63 1.188c-.291.548-.965.768-1.523.495l-1.208-.59a1.151 1.151 0 00-1.011 0l-1.209.59a1.15 1.15 0 01-1.522-.495l-.63-1.19a1.153 1.153 0 00-.82-.593l-1.324-.233a1.151 1.151 0 01-.941-1.295l.188-1.332a1.15 1.15 0 00-.312-.961L1.99 10.8a1.151 1.151 0 010-1.6l.935-.967a1.15 1.15 0 00.312-.962L3.05 5.939a1.15 1.15 0 01.94-1.294l1.326-.232c.349-.062.65-.281.817-.594l.63-1.189c.292-.548.965-.767 1.523-.495l1.209.591c.318.156.691.156 1.01 0z"/><path d="M7.5 12.5l5-5M7.707 7.5a.208.208 0 10.002.416.208.208 0 00-.002-.416M12.29 12.083a.208.208 0 10.002.417.208.208 0 00-.001-.417"/></symbol><symbol viewBox="0 0 20 20" id="search" xmlns="http://www.w3.org/2000/svg"><path d="M13.424 5.236a5.792 5.792 0 11-8.19 8.191 5.792 5.792 0 018.19-8.19M16.458 16.459l-3.036-3.036"/></symbol><symbol viewBox="0 0 24 24" id="shevron-down" xmlns="http://www.w3.org/2000/svg"><path d="M18.453 8.293a1 1 0 010 1.414l-5.586 5.585a1.09 1.09 0 01-.046.044l-.042.045a1 1 0 01-1.414 0L5.707 9.723a1 1 0 111.414-1.414l4.95 4.95 4.967-4.966a1 1 0 011.415 0z"/></symbol><symbol viewBox="0 0 16 16" id="trash" xmlns="http://www.w3.org/2000/svg"><path d="M13.335 4.248H2.665M9.312 7.25V11M6.687 7.25V11m3.675 3.002H5.638a1.5 1.5 0 01-1.497-1.386l-.643-8.369H12.5l-.643 8.369a1.5 1.5 0 01-1.496 1.386zM6.124 1.998h3.751a.75.75 0 01.75.75v1.5H5.375v-1.5a.75.75 0 01.75-.75z"/></symbol><symbol viewBox="0 0 20 20" id="user" xmlns="http://www.w3.org/2000/svg"><path clip-rule="evenodd" d="M9.996 3.134a2.858 2.858 0 100 5.715 2.858 2.858 0 000-5.715zM5.727 5.992a4.269 4.269 0 118.538 0 4.269 4.269 0 01-8.538 0zM2.164 16.904c0-2.48 2.01-4.491 4.491-4.491h6.681c2.48 0 4.492 2.01 4.492 4.491v.668a.705.705 0 11-1.411 0v-.668a3.08 3.08 0 00-3.08-3.08H6.654a3.08 3.08 0 00-3.08 3.08v.668a.706.706 0 01-1.41 0v-.668z"/></symbol></svg>