<?xml version="1.0" encoding="utf-8"?><svg xmlns="http://www.w3.org/2000/svg" xmlns:xlink="http://www.w3.org/1999/xlink"><symbol viewBox="0 0 30 38" id="file" xmlns="http://www.w3.org/2000/svg"><path clip-rule="evenodd" d="M27.828 7.828l-5.656-5.656A4.001 4.001 0 0019.344 1H5C2.79 1 1 2.79 1 5v28c0 2.21 1.79 4 4 4h20c2.21 0 4-1.79 4-4V10.656c0-1.06-.422-2.078-1.172-2.828v0z"/><path d="M11.68 24.1h6.64"/><path clip-rule="evenodd" d="M12.666 16.502v-2.336c0-.644.522-1.166 1.166-1.166h2.336c.644 0 1.166.522 1.166 1.166v2.336c0 .644-.522 1.166-1.166 1.166h-2.336a1.169 1.169 0 01-1.166-1.166zM7 25.834v-2.336c0-.644.522-1.166 1.166-1.166h2.336c.644 0 1.166.522 1.166 1.166v2.336c0 .644-.522 1.166-1.166 1.166H8.166A1.166 1.166 0 017 25.834zM18.334 25.834v-2.336c0-.644.522-1.166 1.166-1.166h2.336c.644 0 1.166.522 1.166 1.166v2.336A1.169 1.169 0 0121.834 27h-2.336a1.166 1.166 0 01-1.164-1.166h0z"/><path d="M19.48 22.34l-3.02-4.72M10.52 22.34l3.02-4.72"/></symbol><symbol viewBox="0 0 126 32" id="logo" xmlns="http://www.w3.org/2000/svg"><path d="M52.348.58L42.14 31.418h5.826l1.154-3.45c.163-.498.461-.799 1.086-.799h9.316c.625 0 .923.298 1.086.798l1.154 3.451h5.826L57.386.579h-5.038zm5.335 21.21h-5.63c-.593 0-.923-.364-.724-.962l2.96-8.963c.264-.795.924-.795 1.187 0l2.932 8.963c.195.63-.132.963-.725.963zM86.127 18.837c0 1.063-.757 1.264-1.25.3L75.494.58H68.35v30.837h5.63V13.161c0-1.063.757-1.26 1.25-.298l9.714 18.556h6.816V.579h-5.63v18.258h-.003zM28.873 24.944V.58h-5.63v30.837h18.074v-5.377H29.96c-.625 0-1.087-.465-1.087-1.095zM17.087 15.251c1.942-1.425 3.063-3.55 3.063-6.174 0-5.012-3.262-8.498-8.527-8.498H0v30.837h12.216c4.906 0 8.56-3.784 8.56-8.963 0-2.985-1.385-5.641-3.69-7.202zM5.63 6.456c0-.497.295-.798.792-.798h4.147c2.108 0 3.589 1.66 3.589 3.751 0 2.123-1.48 3.752-3.59 3.752H6.423c-.494 0-.792-.365-.792-.83V6.455zm5.038 19.816H6.486c-.493 0-.856-.365-.856-.863v-6.274c0-.53.363-.895.856-.895h4.182c2.47 0 4.016 1.725 4.016 3.984 0 2.29-1.548 4.048-4.016 4.048zM120.187 16c0 5.683-4.588 10.308-10.225 10.308-5.636 0-10.224-4.622-10.224-10.308s4.588-10.308 10.224-10.308V0c-8.749 0-15.869 7.179-15.869 16 0 8.822 7.12 16 15.869 16 8.75 0 15.87-7.178 15.87-16h-5.645z"/></symbol><symbol viewBox="0 0 24 24" id="shevron-down" xmlns="http://www.w3.org/2000/svg"><path d="M18.453 8.293a1 1 0 010 1.414l-5.586 5.585a1.09 1.09 0 01-.046.044l-.042.045a1 1 0 01-1.414 0L5.707 9.723a1 1 0 111.414-1.414l4.95 4.95 4.967-4.966a1 1 0 011.415 0z"/></symbol></svg>