<?xml version="1.0" encoding="utf-8"?><svg xmlns="http://www.w3.org/2000/svg" xmlns:xlink="http://www.w3.org/1999/xlink"><symbol viewBox="0 0 24 24" id="arrow-right" xmlns="http://www.w3.org/2000/svg"><path clip-rule="evenodd" d="M13.498 6.289a.794.794 0 011.123 0l5.15 5.15a.794.794 0 010 1.123l-5.15 5.15a.794.794 0 01-1.123-1.124l3.794-3.794H4.79a.794.794 0 010-1.588h12.502l-3.794-3.794a.794.794 0 010-1.123z"/></symbol><symbol viewBox="0 0 14 14" id="bonus" xmlns="http://www.w3.org/2000/svg"><path d="M12.69 6.055l-1.076 4.756a.437.437 0 01-.438.345H2.793a.437.437 0 01-.437-.345L1.315 6.055a.438.438 0 01.621-.486l2.555 1.238 2.117-3.745a.438.438 0 01.762 0l2.117 3.75 2.573-1.247a.438.438 0 01.63.49z"/></symbol><symbol viewBox="0 0 16 17" id="clock" xmlns="http://www.w3.org/2000/svg"><path clip-rule="evenodd" d="M8.002 2.998a5.502 5.502 0 100 11.005 5.502 5.502 0 000-11.005zM1.5 8.5a6.503 6.503 0 1113.005 0A6.503 6.503 0 011.5 8.5zm6.1-3.835a.5.5 0 01.5.5v3.237h2.602a.5.5 0 110 1H7.601a.5.5 0 01-.5-.5V5.165a.5.5 0 01.5-.5z"/></symbol><symbol viewBox="0 0 24 24" id="cross" xmlns="http://www.w3.org/2000/svg"><path d="M6.577 5.176a.992.992 0 10-1.404 1.403L10.595 12l-5.422 5.421a.992.992 0 001.404 1.404l5.42-5.422 5.422 5.421a.992.992 0 001.403-1.403l-5.42-5.42 5.42-5.422a.992.992 0 00-1.403-1.403l-5.421 5.42-5.421-5.42z"/></symbol><symbol viewBox="0 0 30 38" id="file" xmlns="http://www.w3.org/2000/svg"><path clip-rule="evenodd" d="M27.828 7.828l-5.656-5.656A4.001 4.001 0 0019.344 1H5C2.79 1 1 2.79 1 5v28c0 2.21 1.79 4 4 4h20c2.21 0 4-1.79 4-4V10.656c0-1.06-.422-2.078-1.172-2.828v0z"/><path d="M11.68 24.1h6.64"/><path clip-rule="evenodd" d="M12.666 16.502v-2.336c0-.644.522-1.166 1.166-1.166h2.336c.644 0 1.166.522 1.166 1.166v2.336c0 .644-.522 1.166-1.166 1.166h-2.336a1.169 1.169 0 01-1.166-1.166zM7 25.834v-2.336c0-.644.522-1.166 1.166-1.166h2.336c.644 0 1.166.522 1.166 1.166v2.336c0 .644-.522 1.166-1.166 1.166H8.166A1.166 1.166 0 017 25.834zM18.334 25.834v-2.336c0-.644.522-1.166 1.166-1.166h2.336c.644 0 1.166.522 1.166 1.166v2.336A1.169 1.169 0 0121.834 27h-2.336a1.166 1.166 0 01-1.164-1.166h0z"/><path d="M19.48 22.34l-3.02-4.72M10.52 22.34l3.02-4.72"/></symbol><symbol viewBox="0 0 126 32" id="logo" xmlns="http://www.w3.org/2000/svg"><path d="M52.348.58L42.14 31.418h5.826l1.154-3.45c.163-.498.461-.799 1.086-.799h9.316c.625 0 .923.298 1.086.798l1.154 3.451h5.826L57.386.579h-5.038zm5.335 21.21h-5.63c-.593 0-.923-.364-.724-.962l2.96-8.963c.264-.795.924-.795 1.187 0l2.932 8.963c.195.63-.132.963-.725.963zM86.127 18.837c0 1.063-.757 1.264-1.25.3L75.494.58H68.35v30.837h5.63V13.161c0-1.063.757-1.26 1.25-.298l9.714 18.556h6.816V.579h-5.63v18.258h-.003zM28.873 24.944V.58h-5.63v30.837h18.074v-5.377H29.96c-.625 0-1.087-.465-1.087-1.095zM17.087 15.251c1.942-1.425 3.063-3.55 3.063-6.174 0-5.012-3.262-8.498-8.527-8.498H0v30.837h12.216c4.906 0 8.56-3.784 8.56-8.963 0-2.985-1.385-5.641-3.69-7.202zM5.63 6.456c0-.497.295-.798.792-.798h4.147c2.108 0 3.589 1.66 3.589 3.751 0 2.123-1.48 3.752-3.59 3.752H6.423c-.494 0-.792-.365-.792-.83V6.455zm5.038 19.816H6.486c-.493 0-.856-.365-.856-.863v-6.274c0-.53.363-.895.856-.895h4.182c2.47 0 4.016 1.725 4.016 3.984 0 2.29-1.548 4.048-4.016 4.048zM120.187 16c0 5.683-4.588 10.308-10.225 10.308-5.636 0-10.224-4.622-10.224-10.308s4.588-10.308 10.224-10.308V0c-8.749 0-15.869 7.179-15.869 16 0 8.822 7.12 16 15.869 16 8.75 0 15.87-7.178 15.87-16h-5.645z"/></symbol><symbol viewBox="0 0 24 24" id="menu" xmlns="http://www.w3.org/2000/svg"><path clip-rule="evenodd" d="M8.098 6.437a.9.9 0 01.9-.9h11.005a.9.9 0 010 1.8H8.998a.9.9 0 01-.9-.9zM8.098 12a.9.9 0 01.9-.9h11.005a.9.9 0 010 1.8H8.998a.9.9 0 01-.9-.9zM8.098 17.564a.9.9 0 01.9-.9h11.005a.9.9 0 010 1.8H8.998a.9.9 0 01-.9-.9zM3.096 6.437a1.4 1.4 0 112.8 0 1.4 1.4 0 01-2.8 0zM3.096 12a1.4 1.4 0 112.8 0 1.4 1.4 0 01-2.8 0zM3.096 17.564a1.4 1.4 0 112.8 0 1.4 1.4 0 01-2.8 0z"/></symbol><symbol viewBox="0 0 16 17" id="navigation" xmlns="http://www.w3.org/2000/svg"><path clip-rule="evenodd" d="M11.895 2.944c1.038-.385 2.049.626 1.664 1.664l-3.22 8.687c-.442 1.193-2.16 1.1-2.47-.135l-.905-3.613-3.625-.91c-1.234-.31-1.328-2.028-.135-2.47l8.69-3.223zM9.402 12.947l3.22-8.686a.295.295 0 00-.38-.38l-8.69 3.223a.295.295 0 00.03.563l3.916.983a.5.5 0 01.363.364l.977 3.902c.071.282.463.303.564.031z"/></symbol><symbol viewBox="0 0 24 24" id="sale" xmlns="http://www.w3.org/2000/svg"><path d="M9 15l6-6m3.896-2.846l.865.189c.792.173 1.264.99 1.018 1.763l-.269.844a1.378 1.378 0 00.385 1.436l.655.596c.6.546.6 1.49 0 2.036l-.655.596a1.377 1.377 0 00-.385 1.436l.27.844a1.377 1.377 0 01-1.019 1.763l-.865.189a1.376 1.376 0 00-1.05 1.051l-.19.865a1.377 1.377 0 01-1.763 1.018l-.844-.269a1.378 1.378 0 00-1.436.385l-.596.655a1.378 1.378 0 01-2.036 0l-.596-.655a1.377 1.377 0 00-1.436-.385l-.844.269a1.377 1.377 0 01-1.763-1.018l-.189-.865a1.376 1.376 0 00-1.05-1.051l-.866-.189a1.377 1.377 0 01-1.018-1.763l.27-.844a1.378 1.378 0 00-.386-1.436l-.654-.596a1.378 1.378 0 010-2.036l.655-.596c.398-.362.548-.923.385-1.436l-.27-.844a1.377 1.377 0 011.018-1.763l.865-.189a1.376 1.376 0 001.051-1.051l.19-.865A1.377 1.377 0 018.104 3.22l.844.269a1.378 1.378 0 001.436-.385l.596-.655a1.378 1.378 0 012.036 0l.596.655c.362.398.923.548 1.436.385l.844-.269a1.377 1.377 0 011.763 1.018l.19.865c.114.526.524.936 1.05 1.051zm-9.05 3.084a.598.598 0 11-1.196 0 .598.598 0 011.197 0zm5.5 5.51a.598.598 0 11-1.196 0 .598.598 0 011.197 0z"/></symbol><symbol viewBox="0 0 20 20" id="search" xmlns="http://www.w3.org/2000/svg"><path clip-rule="evenodd" d="M9.213 4.08a5.135 5.135 0 100 10.27 5.135 5.135 0 000-10.27zm5.192 9.266a6.635 6.635 0 10-1.06 1.06l2.792 2.793a.75.75 0 101.06-1.06l-2.792-2.793z"/></symbol><symbol viewBox="0 0 24 24" id="shevron-down" xmlns="http://www.w3.org/2000/svg"><path d="M18.453 8.293a1 1 0 010 1.414l-5.586 5.585a1.09 1.09 0 01-.046.044l-.042.045a1 1 0 01-1.414 0L5.707 9.723a1 1 0 111.414-1.414l4.95 4.95 4.967-4.966a1 1 0 011.415 0z"/></symbol><symbol viewBox="0 0 20 20" id="user" xmlns="http://www.w3.org/2000/svg"><path clip-rule="evenodd" d="M9.996 3.134a2.858 2.858 0 100 5.715 2.858 2.858 0 000-5.715zM5.727 5.992a4.269 4.269 0 118.538 0 4.269 4.269 0 01-8.538 0zM2.164 16.904c0-2.48 2.01-4.491 4.491-4.491h6.681c2.48 0 4.492 2.01 4.492 4.491v.668a.705.705 0 11-1.411 0v-.668a3.08 3.08 0 00-3.08-3.08H6.654a3.08 3.08 0 00-3.08 3.08v.668a.706.706 0 01-1.41 0v-.668z"/></symbol></svg>