<svg width="20" height="20" viewBox="0 0 20 20" fill="none" xmlns="http://www.w3.org/2000/svg">
<path d="M7.951 9.69158C7.77477 9.90417 7.80424 10.2194 8.01684 10.3956C8.22944 10.5718 8.54464 10.5424 8.72087 10.3298L7.951 9.69158ZM11.2843 10.3298C11.4606 10.5424 11.7758 10.5718 11.9884 10.3956C12.201 10.2194 12.2304 9.90417 12.0542 9.69158L11.2843 10.3298ZM7.35963 7.64282L7.00607 7.99637L7.00608 7.99637L7.35963 7.64282ZM7.35963 12.3569L7.00608 12.0033L7.00608 12.0033L7.35963 12.3569ZM2.64559 12.3569L2.99914 12.0033L2.99914 12.0033L2.64559 12.3569ZM2.64559 7.64282L2.99914 7.99637L2.99914 7.99637L2.64559 7.64282ZM17.3596 7.64282L17.0061 7.99637V7.99637L17.3596 7.64282ZM17.3596 12.3569L17.0061 12.0033L17.0061 12.0033L17.3596 12.3569ZM12.6456 12.3569L12.9991 12.0033L12.9991 12.0033L12.6456 12.3569ZM12.6456 7.64282L12.9991 7.99637L12.9991 7.99637L12.6456 7.64282ZM1.66927 10.4998C1.94541 10.4998 2.16927 10.276 2.16927 9.99984C2.16927 9.7237 1.94541 9.49984 1.66927 9.49984V10.4998ZM0.835938 9.49984C0.559795 9.49984 0.335938 9.7237 0.335938 9.99984C0.335938 10.276 0.559795 10.4998 0.835938 10.4998V9.49984ZM19.1693 10.4998C19.4454 10.4998 19.6693 10.276 19.6693 9.99984C19.6693 9.7237 19.4454 9.49984 19.1693 9.49984V10.4998ZM18.3359 9.49984C18.0598 9.49984 17.8359 9.7237 17.8359 9.99984C17.8359 10.276 18.0598 10.4998 18.3359 10.4998V9.49984ZM8.72087 10.3298C9.09386 9.87983 9.55977 9.67755 10.0026 9.67755C10.4454 9.67755 10.9113 9.87983 11.2843 10.3298L12.0542 9.69158C11.5064 9.03069 10.766 8.67755 10.0026 8.67755C9.23919 8.67755 8.49885 9.03069 7.951 9.69158L8.72087 10.3298ZM7.00608 7.99637C8.11256 9.10286 8.11256 10.8968 7.00608 12.0033L7.71318 12.7104C9.2102 11.2134 9.21019 8.78628 7.71318 7.28926L7.00608 7.99637ZM7.00608 12.0033C5.89959 13.1098 4.10562 13.1098 2.99914 12.0033L2.29203 12.7104C3.78904 14.2074 6.21617 14.2074 7.71318 12.7104L7.00608 12.0033ZM2.99914 12.0033C1.89265 10.8968 1.89265 9.10285 2.99914 7.99637L2.29204 7.28926C0.795021 8.78627 0.795023 11.2134 2.29203 12.7104L2.99914 12.0033ZM2.99914 7.99637C4.10563 6.88988 5.8996 6.88988 7.00607 7.99637L7.71318 7.28926C6.21618 5.79225 3.78905 5.79225 2.29203 7.28926L2.99914 7.99637ZM17.0061 7.99637C18.1125 9.10286 18.1125 10.8968 17.0061 12.0033L17.7132 12.7104C19.2102 11.2134 19.2102 8.78628 17.7132 7.28926L17.0061 7.99637ZM17.0061 12.0033C15.8996 13.1098 14.1056 13.1098 12.9991 12.0033L12.292 12.7104C13.789 14.2074 16.2161 14.2074 17.7132 12.7104L17.0061 12.0033ZM12.9991 12.0033C11.8926 10.8968 11.8926 9.10285 12.9991 7.99637L12.292 7.28926C10.795 8.78627 10.795 11.2134 12.292 12.7104L12.9991 12.0033ZM12.9991 7.99637C14.1056 6.88988 15.8996 6.88988 17.0061 7.99637L17.7132 7.28926C16.2162 5.79225 13.789 5.79225 12.292 7.28926L12.9991 7.99637ZM1.66927 9.49984H0.835938V10.4998H1.66927V9.49984ZM19.1693 9.49984H18.3359V10.4998H19.1693V9.49984Z" fill="#011F3A"/>
</svg>
