<svg width="20" height="20" viewBox="0 0 20 20" fill="none" xmlns="http://www.w3.org/2000/svg">
<path fill-rule="evenodd" clip-rule="evenodd" d="M9.21308 4.08008C6.37712 4.08008 4.07812 6.37907 4.07812 9.21503C4.07812 12.051 6.37712 14.35 9.21308 14.35C10.6213 14.35 11.8972 13.7831 12.8249 12.8651C12.831 12.8585 12.8372 12.852 12.8436 12.8456C12.8501 12.8392 12.8565 12.8329 12.8631 12.8268C13.7811 11.8991 14.348 10.6233 14.348 9.21503C14.348 6.37907 12.049 4.08008 9.21308 4.08008ZM14.4051 13.3464C15.3083 12.2129 15.848 10.777 15.848 9.21503C15.848 5.55065 12.8775 2.58008 9.21308 2.58008C5.54869 2.58008 2.57812 5.55065 2.57812 9.21503C2.57812 12.8794 5.54869 15.85 9.21308 15.85C10.7751 15.85 12.211 15.3102 13.3445 14.4071L16.1367 17.1993C16.4296 17.4922 16.9045 17.4922 17.1973 17.1993C17.4902 16.9064 17.4902 16.4315 17.1973 16.1386L14.4051 13.3464Z" fill="#99A5B0"/>
</svg>
