<svg width="20" height="20" viewBox="0 0 20 20" fill="none" xmlns="http://www.w3.org/2000/svg">
<path d="M11.2611 2.29868L11.256 1.79871L10.7611 1.80382V2.29868H11.2611ZM17.197 6.18768L17.6574 5.99275L17.197 6.18768ZM8.90309 14.5681L9.09322 14.1057L8.90309 14.5681ZM4.95266 8.673H4.45266V8.67303L4.95266 8.673ZM3.758 4.95479L3.75765 5.45479H3.758V4.95479ZM2.9127 5.3044L2.55927 4.95073H2.55927L2.9127 5.3044ZM11.7611 8.673V2.29868H10.7611V8.673H11.7611ZM11.2663 2.79866C13.6476 2.77405 15.8081 4.18958 16.7365 6.3826L17.6574 5.99275C16.571 3.42641 14.0426 1.76991 11.256 1.79871L11.2663 2.79866ZM16.7365 6.3826C17.6649 8.57562 17.1774 11.1122 15.5023 12.8048L16.213 13.5082C18.1734 11.5274 18.7438 8.5591 17.6574 5.99275L16.7365 6.3826ZM15.5023 12.8048C13.8271 14.4975 11.2958 15.0113 9.09322 14.1057L8.71296 15.0306C11.2905 16.0903 14.2527 15.489 16.213 13.5082L15.5023 12.8048ZM9.09322 14.1057C6.89068 13.2001 5.45279 11.0544 5.45266 8.67298L4.45266 8.67303C4.45281 11.4599 6.13547 13.9709 8.71296 15.0306L9.09322 14.1057ZM5.45266 8.673V6.14945H4.45266V8.673H5.45266ZM5.45266 6.14945C5.45266 5.21352 4.69394 4.45479 3.758 4.45479V5.45479C4.14165 5.45479 4.45266 5.7658 4.45266 6.14945H5.45266ZM3.75835 4.45479C3.30869 4.45447 2.87734 4.63288 2.55927 4.95073L3.26613 5.65808C3.39651 5.52779 3.57333 5.45466 3.75765 5.45479L3.75835 4.45479ZM2.55927 4.95073C2.24121 5.26857 2.0625 5.6998 2.0625 6.14945H3.0625C3.0625 5.96513 3.13575 5.78837 3.26613 5.65808L2.55927 4.95073ZM2.0625 6.14945V6.54795H3.0625V6.14945H2.0625ZM4.95266 9.173L17.5687 9.173V8.173L4.95266 8.173V9.173ZM15.0548 17.3766C15.0548 17.3774 15.0547 17.3768 15.0551 17.376C15.0553 17.3755 15.0554 17.3755 15.0552 17.3757C15.0549 17.376 15.0549 17.3759 15.0554 17.3756C15.0563 17.3753 15.0568 17.3753 15.0561 17.3753V18.3753C15.6076 18.3753 16.0548 17.9282 16.0548 17.3766H15.0548ZM15.0561 17.3753C15.0553 17.3753 15.0559 17.3753 15.0567 17.3756C15.0573 17.3759 15.0572 17.376 15.057 17.3757C15.0567 17.3755 15.0568 17.3755 15.0571 17.376C15.0574 17.3768 15.0574 17.3774 15.0574 17.3766H14.0574C14.0574 17.9282 14.5045 18.3753 15.0561 18.3753V17.3753ZM15.0574 17.3766C15.0574 17.3759 15.0574 17.3764 15.0571 17.3773C15.0568 17.3778 15.0567 17.3778 15.057 17.3776C15.0572 17.3773 15.0573 17.3774 15.0567 17.3776C15.0559 17.378 15.0553 17.3779 15.0561 17.3779V16.3779C14.5045 16.3779 14.0574 16.8251 14.0574 17.3766H15.0574ZM15.0561 17.3779C15.0568 17.3779 15.0563 17.378 15.0554 17.3776C15.0549 17.3774 15.0549 17.3773 15.0552 17.3776C15.0554 17.3778 15.0553 17.3778 15.0551 17.3773C15.0547 17.3764 15.0548 17.3759 15.0548 17.3766H16.0548C16.0548 16.8251 15.6076 16.3779 15.0561 16.3779V17.3779ZM7.46103 17.3766C7.46103 17.3774 7.46098 17.3768 7.46134 17.376C7.46156 17.3755 7.46166 17.3755 7.46141 17.3757C7.46116 17.376 7.46115 17.3759 7.46167 17.3756C7.46252 17.3753 7.46307 17.3753 7.46233 17.3753V18.3753C8.0139 18.3753 8.46103 17.9282 8.46103 17.3766H7.46103ZM7.46233 17.3753C7.46158 17.3753 7.46213 17.3753 7.46298 17.3756C7.4635 17.3759 7.46349 17.376 7.46324 17.3757C7.463 17.3755 7.46309 17.3755 7.46331 17.376C7.46367 17.3768 7.46362 17.3774 7.46362 17.3766H6.46362C6.46362 17.9282 6.91076 18.3753 7.46233 18.3753V17.3753ZM7.46362 17.3766C7.46362 17.3759 7.46367 17.3764 7.46331 17.3773C7.4631 17.3778 7.463 17.3778 7.46324 17.3776C7.46349 17.3773 7.4635 17.3774 7.46298 17.3776C7.46213 17.378 7.46158 17.3779 7.46233 17.3779V16.3779C6.91076 16.3779 6.46362 16.8251 6.46362 17.3766H7.46362ZM7.46233 17.3779C7.46307 17.3779 7.46252 17.378 7.46167 17.3776C7.46115 17.3774 7.46116 17.3773 7.46141 17.3776C7.46166 17.3778 7.46156 17.3778 7.46134 17.3773C7.46098 17.3764 7.46103 17.3759 7.46103 17.3766H8.46103C8.46103 16.8251 8.0139 16.3779 7.46233 16.3779V17.3779Z" fill="#011F3A"/>
</svg>
