<svg width="20" height="20" viewBox="0 0 20 20" fill="none" xmlns="http://www.w3.org/2000/svg">
<path d="M8.26164 5.61954C7.9855 5.61954 7.76164 5.8434 7.76164 6.11954C7.76164 6.39568 7.9855 6.61954 8.26164 6.61954V5.61954ZM10.0032 6.11954V6.61954C10.095 6.61954 10.185 6.59428 10.2634 6.54652L10.0032 6.11954ZM11.3604 5.29253L11.1003 4.86552L11.1003 4.86555L11.3604 5.29253ZM12.5851 5.74105L12.1107 5.89906L12.1108 5.89916L12.5851 5.74105ZM14.5051 11.5009L14.0307 11.6591C14.0477 11.71 14.0728 11.758 14.1051 11.8009L14.5051 11.5009ZM17.2062 15.1024L17.6062 14.8024L17.2062 15.1024ZM17.3479 16.6739L16.9007 16.4503L17.3479 16.6739ZM12.7293 17.5034V17.0034H12.729L12.7293 17.5034ZM10.2875 16.4397L10.6538 16.0994L10.6538 16.0993L10.2875 16.4397ZM3.16702 8.77565L2.80036 9.11559L2.80071 9.11597L3.16702 8.77565ZM2.50409 6.93233L2.0049 6.90376L2.50409 6.93233ZM3.37294 5.17665L3.0476 4.79696L3.04745 4.7971L3.37294 5.17665ZM6.22662 2.73146L5.90134 2.35173L5.90129 2.35178L6.22662 2.73146ZM7.82146 3.4651H8.32146V3.46501L7.82146 3.4651ZM7.82146 6.11954H7.32146C7.32146 6.39568 7.54531 6.61954 7.82146 6.61954V6.11954ZM2.50007 14.0856C2.22393 14.0856 2.00007 14.3094 2.00007 14.5856C2.00007 14.8617 2.22393 15.0856 2.50007 15.0856V14.0856ZM4.16743 15.0856C4.44358 15.0856 4.66743 14.8617 4.66743 14.5856C4.66743 14.3094 4.44358 14.0856 4.16743 14.0856V15.0856ZM6.66848 18.0034C6.94462 18.0034 7.16848 17.7796 7.16848 17.5034C7.16848 17.2273 6.94462 17.0034 6.66848 17.0034V18.0034ZM2.50007 17.0034C2.22393 17.0034 2.00007 17.2273 2.00007 17.5034C2.00007 17.7796 2.22393 18.0034 2.50007 18.0034V17.0034ZM17.1287 15.5024C17.4048 15.5024 17.6287 15.2786 17.6287 15.0024C17.6287 14.7263 17.4048 14.5024 17.1287 14.5024V15.5024ZM12.9403 15.0024V14.5024L12.9389 14.5024L12.9403 15.0024ZM11.1112 14.2071L11.4778 13.8671L11.4776 13.8668L11.1112 14.2071ZM3.41253 5.18156C3.22463 4.97921 2.90826 4.96749 2.70591 5.1554C2.50355 5.3433 2.49184 5.65966 2.67974 5.86202L3.41253 5.18156ZM10.7516 10.3413C10.4795 10.3884 10.2971 10.6472 10.3442 10.9193C10.3913 11.1914 10.6501 11.3738 10.9222 11.3267L10.7516 10.3413ZM14.1777 10.7631C14.4498 10.716 14.6322 10.4572 14.5851 10.1851C14.538 9.91305 14.2792 9.73066 14.0071 9.77776L14.1777 10.7631ZM9.91797 8.25712C9.64587 8.30419 9.46344 8.56293 9.51051 8.83503C9.55758 9.10713 9.81632 9.28955 10.0884 9.24248L9.91797 8.25712ZM13.4765 8.65641C13.7486 8.60934 13.931 8.3506 13.884 8.0785C13.8369 7.8064 13.5782 7.62397 13.3061 7.67104L13.4765 8.65641ZM8.26164 6.61954H10.0032V5.61954H8.26164V6.61954ZM10.2634 6.54652L11.6206 5.71951L11.1003 4.86555L9.74302 5.69256L10.2634 6.54652ZM11.6206 5.71954C11.7073 5.66667 11.8135 5.65623 11.9089 5.69118L12.2528 4.75217C11.8714 4.61249 11.4472 4.65422 11.1003 4.86552L11.6206 5.71954ZM11.9089 5.69118C12.0043 5.72612 12.0786 5.80265 12.1107 5.89906L13.0595 5.58304C12.9311 5.1977 12.6342 4.89184 12.2528 4.75217L11.9089 5.69118ZM12.1108 5.89916L14.0307 11.6591L14.9794 11.3428L13.0594 5.58293L12.1108 5.89916ZM14.1051 11.8009L16.8062 15.4024L17.6062 14.8024L14.9051 11.2009L14.1051 11.8009ZM16.8062 15.4024C17.0336 15.7057 17.0702 16.1113 16.9007 16.4503L17.7951 16.8975C18.134 16.2198 18.0609 15.4087 17.6062 14.8024L16.8062 15.4024ZM16.9007 16.4503C16.7312 16.7893 16.3847 17.0034 16.0057 17.0034V18.0034C16.7635 18.0034 17.4562 17.5753 17.7951 16.8975L16.9007 16.4503ZM16.0057 17.0034H12.7293V18.0034H16.0057V17.0034ZM12.729 17.0034C11.9416 17.0039 11.1897 16.6763 10.6538 16.0994L9.92112 16.7799C10.6463 17.5607 11.664 18.0041 12.7296 18.0034L12.729 17.0034ZM10.6538 16.0993L3.53332 8.43532L2.80071 9.11597L9.92118 16.78L10.6538 16.0993ZM3.53367 8.4357C3.1637 8.03666 2.97219 7.50416 3.00327 6.96089L2.0049 6.90376C1.95829 7.71853 2.2455 8.51714 2.80036 9.11559L3.53367 8.4357ZM3.00327 6.96089C3.03436 6.41761 3.28535 5.91043 3.69842 5.5562L3.04745 4.7971C2.42795 5.32835 2.05152 6.089 2.0049 6.90376L3.00327 6.96089ZM3.69827 5.55633L6.55196 3.11114L5.90129 2.35178L3.0476 4.79696L3.69827 5.55633ZM6.5519 3.11119C6.69015 2.99276 6.88469 2.96563 7.05007 3.0417L7.46798 2.13322C6.94789 1.89397 6.33612 1.9793 5.90134 2.35173L6.5519 3.11119ZM7.05007 3.0417C7.21544 3.11778 7.32142 3.28315 7.32146 3.46519L8.32146 3.46501C8.32135 2.89253 7.98807 2.37246 7.46798 2.13322L7.05007 3.0417ZM7.32146 3.4651V6.11954H8.32146V3.4651H7.32146ZM7.82146 6.61954H10.0032V5.61954H7.82146V6.61954ZM2.50007 15.0856H4.16743V14.0856H2.50007V15.0856ZM6.66848 17.0034H2.50007V18.0034H6.66848V17.0034ZM17.1287 14.5024H12.9403V15.5024H17.1287V14.5024ZM12.9389 14.5024C12.3845 14.5039 11.8547 14.2736 11.4778 13.8671L10.7445 14.5471C11.3114 15.1583 12.108 15.5047 12.9416 15.5024L12.9389 14.5024ZM11.4776 13.8668L3.41253 5.18156L2.67974 5.86202L10.7448 14.5473L11.4776 13.8668ZM10.9222 11.3267L14.1777 10.7631L14.0071 9.77776L10.7516 10.3413L10.9222 11.3267ZM10.0884 9.24248L13.4765 8.65641L13.3061 7.67104L9.91797 8.25712L10.0884 9.24248Z" fill="#011F3A"/>
</svg>
