<svg width="20" height="20" viewBox="0 0 20 20" fill="none" xmlns="http://www.w3.org/2000/svg">
<path d="M3.80907 16.3131C3.6138 16.5084 3.6138 16.825 3.80907 17.0202C4.00433 17.2155 4.32091 17.2155 4.51617 17.0202L3.80907 16.3131ZM16.0063 8.86346C16.2016 8.6682 16.2016 8.35161 16.0063 8.15635C15.811 7.96109 15.4945 7.96109 15.2992 8.15635L16.0063 8.86346ZM11.3174 12.8452L11.671 13.1988L11.671 13.1988L11.3174 12.8452ZM10.1389 13.3334L10.1389 12.8334H10.1389L10.1389 13.3334ZM7.49595 10.6904L7.99595 10.6904V10.6904L7.49595 10.6904ZM7.9841 9.51187L7.63054 9.15832L7.63054 9.15832L7.9841 9.51187ZM12.673 5.53012C12.8682 5.33486 12.8682 5.01828 12.673 4.82302C12.4777 4.62775 12.1611 4.62775 11.9658 4.82302L12.673 5.53012ZM9.51617 7.97981C9.32091 7.78455 9.00433 7.78455 8.80907 7.97981C8.6138 8.17507 8.6138 8.49165 8.80907 8.68692L9.51617 7.97981ZM12.1424 12.0202C12.3377 12.2155 12.6542 12.2155 12.8495 12.0202C13.0448 11.825 13.0448 11.5084 12.8495 11.3131L12.1424 12.0202ZM12.1683 5.02546L11.8147 5.37901L12.1683 5.02546ZM15.8039 8.66101L16.1574 8.30746L15.8039 8.66101ZM17.8236 6.64126L18.1772 6.28771L17.8236 6.64126ZM14.188 3.00571L13.8345 3.35926L14.188 3.00571ZM7.97573 6.18691C8.171 6.38218 8.48758 6.38218 8.68284 6.18691C8.8781 5.99165 8.8781 5.67507 8.68284 5.47981L7.97573 6.18691ZM8.02605 4.82302C7.83079 4.62775 7.5142 4.62775 7.31894 4.82302C7.12368 5.01828 7.12368 5.33486 7.31894 5.53012L8.02605 4.82302ZM4.69271 8.15635C4.49745 7.96109 4.18087 7.96109 3.98561 8.15635C3.79035 8.35161 3.79035 8.66819 3.98561 8.86346L4.69271 8.15635ZM5.05907 9.93692C5.25433 10.1322 5.57091 10.1322 5.76617 9.93692C5.96143 9.74165 5.96143 9.42507 5.76617 9.22981L5.05907 9.93692ZM5.80386 3.00571L5.4503 2.65216V2.65216L5.80386 3.00571ZM2.1683 6.64127L2.52186 6.99482L2.1683 6.64127ZM4.18805 8.66102L3.8345 8.30746L4.18805 8.66102ZM7.82361 5.02546L8.17716 5.37902L7.82361 5.02546ZM15.4757 17.0202C15.671 17.2155 15.9876 17.2155 16.1828 17.0202C16.3781 16.825 16.3781 16.5084 16.1828 16.3131L15.4757 17.0202ZM13.6828 13.8131C13.4876 13.6179 13.171 13.6179 12.9757 13.8131C12.7805 14.0084 12.7805 14.325 12.9757 14.5202L13.6828 13.8131ZM4.51617 17.0202L7.84951 13.6869L7.1424 12.9798L3.80907 16.3131L4.51617 17.0202ZM15.2992 8.15635L10.9639 12.4916L11.671 13.1988L16.0063 8.86346L15.2992 8.15635ZM10.9639 12.4916C10.7451 12.7104 10.4483 12.8334 10.1389 12.8334L10.1389 13.8334C10.7136 13.8334 11.2647 13.6051 11.671 13.1988L10.9639 12.4916ZM10.1389 12.8334L7.49595 12.8334L7.49596 13.8334L10.1389 13.8334L10.1389 12.8334ZM7.99595 13.3334L7.99595 10.6904L6.99595 10.6904L6.99595 13.3334L7.99595 13.3334ZM7.99595 10.6904C7.99594 10.381 8.11886 10.0842 8.33765 9.86542L7.63054 9.15832C7.22421 9.56465 6.99594 10.1158 6.99595 10.6904L7.99595 10.6904ZM8.33765 9.86542L12.673 5.53012L11.9658 4.82302L7.63054 9.15832L8.33765 9.86542ZM8.80907 8.68692L12.1424 12.0202L12.8495 11.3131L9.51617 7.97981L8.80907 8.68692ZM13.8345 3.35926L17.47 6.99481L18.1772 6.28771L14.5416 2.65215L13.8345 3.35926ZM16.1574 8.30746L12.5219 4.6719L11.8147 5.37901L15.4503 9.01456L16.1574 8.30746ZM12.5219 4.6719C12.1594 4.30943 12.1594 3.72174 12.5219 3.35926L11.8147 2.65215C11.0617 3.40515 11.0617 4.62601 11.8147 5.37901L12.5219 4.6719ZM17.47 8.30746C17.1076 8.66993 16.5199 8.66993 16.1574 8.30746L15.4503 9.01456C16.2033 9.76756 17.4242 9.76757 18.1772 9.01456L17.47 8.30746ZM17.47 6.99481C17.8325 7.35729 17.8325 7.94498 17.47 8.30746L18.1772 9.01456C18.9302 8.26156 18.9302 7.04071 18.1772 6.28771L17.47 6.99481ZM14.5416 2.65215C13.7886 1.89915 12.5677 1.89915 11.8147 2.65215L12.5219 3.35926C12.8843 2.99678 13.472 2.99678 13.8345 3.35926L14.5416 2.65215ZM8.68284 5.47981L8.02605 4.82302L7.31894 5.53012L7.97573 6.18691L8.68284 5.47981ZM3.98561 8.86346L5.05907 9.93692L5.76617 9.22981L4.69271 8.15635L3.98561 8.86346ZM7.47006 4.67191L3.8345 8.30746L4.54161 9.01457L8.17716 5.37902L7.47006 4.67191ZM2.52186 6.99482L6.15741 3.35927L5.4503 2.65216L1.81475 6.28771L2.52186 6.99482ZM6.15741 3.35927C6.51989 2.99679 7.10758 2.99679 7.47006 3.35927L8.17716 2.65216C7.42416 1.89916 6.20331 1.89916 5.4503 2.65216L6.15741 3.35927ZM2.52186 8.30746C2.15938 7.94499 2.15938 7.3573 2.52186 6.99482L1.81475 6.28771C1.06175 7.04071 1.06175 8.26157 1.81475 9.01457L2.52186 8.30746ZM3.8345 8.30746C3.47202 8.66994 2.88433 8.66994 2.52186 8.30746L1.81475 9.01457C2.56775 9.76757 3.78861 9.76757 4.54161 9.01457L3.8345 8.30746ZM8.17716 5.37902C8.93016 4.62602 8.93016 3.40516 8.17716 2.65216L7.47006 3.35927C7.83253 3.72174 7.83253 4.30943 7.47006 4.67191L8.17716 5.37902ZM16.1828 16.3131L13.6828 13.8131L12.9757 14.5202L15.4757 17.0202L16.1828 16.3131Z" fill="#011F3A"/>
</svg>
